<svg width="331" height="291" viewBox="0 0 331 291" fill="none" xmlns="http://www.w3.org/2000/svg">
<path fill-rule="evenodd" clip-rule="evenodd" d="M268.029 185.836L181.618 185.47C176.14 213.787 164.652 236.502 147.154 253.616C121.685 278.539 84.2723 291 34.9159 291H0.0141602V1.20698H43.8242C90.0126 1.20698 125.149 13.2974 149.232 37.4782C173.315 61.6591 185.358 96.9403 185.36 143.322C185.36 150.441 185.049 157.269 184.496 163.876H259.619L218.627 23.3374L198.634 115.21C197.233 97.4008 192.813 79.9606 185.564 63.6366L198.361 0.0372009H234.149L330.977 291H305.36L268.029 185.836ZM163.384 144.117C163.384 102.628 152.86 71.4091 131.813 50.4609C110.765 29.5127 79.8514 19.0444 39.0722 19.056H20.2052V273.136H33.7329C105.004 273.136 146.883 243.884 159.369 185.378H112.946V163.862H162.526C163.079 157.555 163.384 150.988 163.384 144.117Z" fill="white"/>
</svg>
